<?xml version="1.0" standalone="no"?>
<!DOCTYPE svg PUBLIC "-//W3C//DTD SVG 20010904//EN"
 "http://www.w3.org/TR/2001/REC-SVG-20010904/DTD/svg10.dtd">
<svg version="1.0" xmlns="http://www.w3.org/2000/svg"
 width="1515.000000pt" height="1515.000000pt" viewBox="0 0 1515.000000 1515.000000"
 preserveAspectRatio="xMidYMid meet">

<g transform="translate(0.000000,1515.000000) scale(0.100000,-0.100000)"
fill="#000000" stroke="none">
<path d="M0 7575 l0 -7575 7575 0 7575 0 0 7575 0 7575 -7575 0 -7575 0 0
-7575z m9325 4633 c-18 -76 -53 -264 -50 -267 2 -2 -24 -22 -58 -44 -34 -22
-99 -66 -144 -98 -44 -33 -87 -59 -95 -59 -9 0 -9 3 -2 8 6 4 18 21 27 38 9
17 56 84 104 150 49 65 116 158 149 206 60 89 79 107 69 66z m-82 -23 c-1 -3
-33 -49 -70 -101 -37 -53 -75 -106 -83 -117 -8 -12 -45 -66 -82 -120 -38 -54
-68 -108 -68 -122 0 -13 13 -50 30 -81 16 -31 26 -62 23 -67 -3 -6 -1 -7 4 -4
6 4 14 0 17 -9 5 -12 2 -15 -11 -9 -147 58 -236 75 -386 75 -85 0 -164 -7
-248 -22 -68 -12 -144 -22 -169 -22 -84 0 -275 26 -330 44 -218 73 -669 105
-854 61 -208 -50 -423 -151 -723 -341 -114 -73 -224 -141 -243 -152 -60 -34
-212 -128 -275 -168 -33 -22 -91 -58 -130 -80 -92 -52 -184 -125 -195 -154 -5
-13 -13 -25 -18 -27 -14 -6 -90 -142 -128 -231 -90 -209 -199 -598 -259 -918
-46 -248 -136 -485 -233 -612 -64 -85 -142 -135 -189 -123 -40 10 -42 -24 -4
-55 26 -22 47 -29 114 -35 171 -18 272 1 328 61 25 27 39 31 39 11 0 -7 25
-64 56 -125 31 -62 54 -118 51 -125 -2 -7 -48 -77 -101 -156 -105 -158 -113
-182 -68 -223 22 -21 163 -108 249 -155 13 -6 27 -14 32 -18 11 -6 -25 -122
-45 -146 -8 -8 -14 -23 -14 -32 0 -17 49 -48 85 -54 11 -2 37 -8 57 -14 35 -9
37 -12 32 -42 -19 -113 -33 -160 -89 -317 -83 -231 -212 -620 -221 -666 -5
-26 -3 -39 7 -45 11 -6 9 -14 -8 -38 -38 -50 -120 -213 -141 -276 -11 -33 -25
-94 -31 -135 -6 -41 -19 -108 -27 -148 -9 -40 -14 -95 -12 -122 l5 -49 -86
-69 c-120 -96 -175 -133 -261 -179 -93 -50 -155 -67 -220 -61 -54 5 -59 2 -32
-18 33 -26 132 -17 236 21 119 43 161 64 253 126 40 27 74 49 75 49 2 0 1 -27
0 -60 -3 -53 15 -137 44 -207 4 -10 -250 -12 -1208 -10 l-1213 2 -3 3300 c-1
1815 0 3305 2 3310 2 7 1133 9 3372 8 1853 -2 3368 -5 3367 -8z m3207 -3300
c0 -2965 -2 -3303 -15 -3309 -23 -9 -2443 -7 -2448 1 -3 5 -8 56 -12 114 l-7
106 83 -20 c46 -11 101 -20 122 -19 31 0 46 -8 92 -50 58 -53 106 -71 158 -61
42 9 60 42 55 107 l-3 55 38 7 c42 7 77 37 77 66 0 19 -40 87 -73 125 -19 21
-19 22 5 55 14 18 28 41 31 51 4 9 13 17 21 17 8 0 16 5 18 11 2 5 24 13 48
16 75 10 130 64 130 129 0 25 26 127 85 329 12 44 35 124 49 177 15 54 47 160
72 235 43 133 48 176 22 185 -7 3 -51 1 -98 -3 -47 -4 -161 -13 -255 -18 -212
-13 -543 -45 -740 -71 -215 -30 -215 -29 -215 -51 0 -10 -4 -20 -9 -23 -28
-18 -154 -321 -193 -465 -30 -114 -43 -99 -52 57 -4 70 -15 201 -26 292 -10
91 -17 166 -16 168 2 1 11 -14 22 -33 20 -37 43 -52 54 -35 4 6 5 118 2 248
-6 291 4 518 22 502 7 -5 16 -7 19 -3 8 7 86 6 139 -3 41 -7 111 21 143 56 22
24 12 39 -12 19 -27 -23 -71 -39 -103 -39 -35 0 -100 29 -100 44 1 16 162 86
197 86 17 0 35 6 41 13 12 14 1 47 -22 66 -21 18 -20 34 4 56 11 10 20 26 20
36 0 15 -6 17 -29 13 -28 -6 -29 -4 -50 60 -11 36 -21 67 -21 70 0 3 33 30 73
59 40 30 110 84 156 121 78 63 84 66 101 51 10 -9 21 -28 25 -42 5 -21 0 -31
-27 -54 l-33 -28 38 -1 c21 0 53 6 72 14 52 22 122 92 141 141 l16 44 23 -27
c37 -45 72 -106 79 -138 18 -82 -77 -214 -154 -214 -12 0 -18 -4 -15 -10 8
-14 71 -13 98 2 34 17 68 58 91 108 16 34 20 65 20 130 0 79 -4 94 -48 200
-47 112 -49 118 -57 255 -16 282 -36 421 -89 615 -51 186 -60 223 -56 227 12
12 66 -35 121 -105 141 -181 288 -427 354 -594 47 -116 39 -224 -20 -281 -35
-33 -37 -47 -6 -47 47 0 83 60 93 152 19 185 -162 666 -387 1028 -35 57 -63
107 -61 112 1 4 -11 8 -27 8 l-29 0 80 -132 c103 -171 278 -531 265 -545 -3
-2 -35 41 -72 97 -131 196 -313 425 -346 435 -10 4 -26 19 -36 36 -9 16 -21
29 -26 29 -10 0 9 -32 49 -87 24 -32 31 -48 16 -39 -4 2 -14 1 -21 -4 -12 -7
-12 -16 -1 -51 44 -156 112 -435 134 -553 38 -205 33 -427 -14 -578 -26 -85
-120 -197 -120 -143 0 48 -134 141 -238 165 -100 23 -238 -17 -286 -82 -27
-38 -14 -45 26 -15 97 74 217 89 322 39 l60 -28 -60 -46 c-32 -26 -75 -61 -94
-78 -212 -186 -228 -199 -238 -187 -21 28 -43 117 -49 202 -4 50 -8 83 -11 75
-2 -8 -11 -30 -19 -47 -17 -36 -13 -89 14 -181 25 -90 111 -181 172 -183 23
-1 21 -3 -17 -20 -83 -39 -241 -18 -294 38 -39 43 -45 61 -47 159 -2 72 1 93
13 103 9 8 16 29 16 48 l0 34 -30 -35 c-36 -41 -97 -72 -160 -81 l-45 -7 31
33 c87 95 162 220 219 366 30 78 33 96 23 113 -11 18 -14 14 -35 -38 l-23 -57
6 50 c3 28 11 56 16 63 8 9 -1 27 -34 70 -25 31 -84 109 -132 171 l-87 115 33
18 c49 26 105 40 176 43 63 4 81 9 69 21 -13 14 -158 16 -239 4 l-83 -12 -34
39 c-18 21 -69 89 -114 151 l-81 112 -26 -32 c-27 -32 -27 -35 -23 -138 4 -75
-1 -153 -17 -275 -12 -93 -24 -174 -27 -179 -3 -4 0 -12 7 -16 17 -11 -33
-194 -81 -296 -27 -58 -52 -94 -85 -123 -26 -23 -48 -40 -50 -38 -2 1 10 29
26 62 36 73 55 175 32 175 -8 0 -43 -31 -79 -69 -68 -75 -173 -151 -205 -151
-15 0 -18 3 -10 13 5 6 18 39 28 72 28 93 21 359 -12 478 -9 29 -26 19 -20
-10 11 -47 -11 -234 -34 -303 -39 -112 -99 -219 -142 -250 -40 -29 -38 -47 5
-31 53 21 128 149 162 278 24 89 35 100 35 33 -1 -123 -47 -282 -85 -297 -8
-3 -12 -9 -9 -15 3 -5 15 -3 28 5 15 10 27 12 39 6 41 -24 133 26 226 123 l52
53 -21 -54 c-31 -79 -38 -91 -67 -102 -25 -9 -25 -10 -8 -29 52 -58 164 18
230 156 31 63 85 256 85 302 0 30 66 156 96 182 26 23 191 88 198 79 1 -2 56
-75 121 -162 l118 -158 -16 -77 c-10 -43 -17 -102 -17 -133 0 -48 -6 -64 -49
-134 -82 -134 -184 -235 -238 -235 -12 0 -23 -5 -23 -11 0 -7 16 -9 48 -5 26
4 85 10 132 15 47 5 95 12 107 16 16 5 23 2 28 -15 11 -34 -4 -106 -33 -162
-21 -40 -27 -68 -28 -118 -2 -73 -10 -94 -61 -157 -57 -71 -114 -121 -215
-188 -122 -81 -168 -104 -299 -149 -129 -44 -243 -58 -468 -57 -162 1 -329 23
-499 65 -29 7 -55 10 -58 5 -3 -5 0 -9 5 -9 6 0 11 -7 11 -16 0 -9 28 -45 62
-80 56 -58 70 -67 134 -86 58 -17 70 -24 67 -39 -4 -13 2 -18 23 -21 33 -4 97
-79 92 -109 -2 -9 11 -32 27 -49 28 -30 29 -33 11 -44 -121 -74 -122 -76 -81
-94 34 -16 32 -25 -16 -57 -44 -31 -89 -87 -73 -92 37 -13 39 -20 26 -93 -7
-39 -21 -95 -31 -125 -10 -29 -17 -56 -14 -59 5 -5 31 18 125 106 25 24 33 23
47 -9 12 -27 11 -30 -46 -84 l-60 -55 40 -22 40 -22 22 20 c12 11 26 20 32 20
6 0 16 14 23 30 7 17 16 30 20 30 7 0 19 -59 21 -102 0 -9 9 -20 20 -23 16 -5
19 -16 19 -73 0 -40 6 -79 15 -95 13 -26 13 -34 -1 -77 -30 -91 -33 -92 -104
-19 -37 37 -65 59 -67 52 -12 -34 -63 9 -63 53 0 11 14 40 30 62 17 23 30 44
30 48 0 3 -28 -20 -62 -50 -71 -64 -82 -65 -154 -15 -36 24 -47 28 -64 19 -11
-6 -20 -15 -20 -21 0 -6 -8 -9 -17 -7 -36 6 -44 -11 -20 -44 l22 -30 -24 -16
c-13 -9 -42 -34 -65 -54 -22 -21 -46 -38 -52 -38 -7 0 -47 37 -89 83 -67 72
-78 89 -80 124 l-3 41 29 -10 c17 -6 32 -8 35 -6 9 9 24 123 18 140 -3 12 -20
19 -55 24 -27 4 -49 9 -49 11 0 3 10 13 22 22 30 25 17 66 -37 117 -36 33 -45
49 -50 85 l-6 44 31 -35 c37 -41 293 -379 308 -406 10 -18 11 -18 31 0 12 11
21 22 21 25 0 3 -34 32 -75 65 -41 32 -75 62 -75 66 0 5 -3 15 -6 24 -12 31
23 16 115 -50 l91 -65 41 32 c22 17 37 35 32 39 -4 4 -36 28 -69 54 -48 36
-61 53 -60 72 0 13 6 24 11 24 14 0 128 -80 138 -96 4 -8 12 -14 17 -14 19 0
9 39 -29 122 -22 45 -56 121 -77 168 -20 47 -55 119 -77 160 -48 88 -158 253
-164 246 -3 -3 -15 7 -28 22 -19 21 -21 30 -12 49 7 16 7 34 0 58 -14 44 -3
44 41 0 20 -19 41 -35 49 -35 7 0 22 -7 33 -15 18 -15 18 -15 -11 -13 -44 4
-43 -22 4 -75 21 -26 42 -59 46 -75 6 -31 43 -71 84 -92 78 -40 177 23 125 81
-27 30 -8 42 57 35 42 -5 59 -4 59 5 0 7 9 9 27 4 23 -5 25 -4 14 9 -17 20
-170 23 -190 4 -6 -7 -26 -13 -43 -13 -41 0 -47 -20 -11 -39 15 -8 39 -24 51
-36 19 -18 21 -24 10 -31 -27 -17 -56 -8 -101 31 -42 37 -56 59 -61 97 -1 7
-19 25 -39 39 -43 29 -47 39 -13 30 33 -8 53 16 38 49 -8 16 -23 26 -47 31
-28 5 -42 16 -61 45 -13 21 -32 43 -43 49 -27 14 -71 13 -72 -2 0 -7 -5 2 -10
21 -7 23 -19 37 -40 44 -32 12 -37 25 -14 33 8 4 15 12 15 20 0 16 5 17 28 5
10 -5 41 -14 70 -19 42 -7 50 -7 42 3 -6 7 -32 16 -57 20 -35 5 -118 41 -161
70 -1 2 12 26 30 55 36 59 48 146 29 215 -12 45 -4 55 44 55 51 0 73 -11 86
-42 14 -35 -1 -121 -28 -150 -21 -23 0 -24 23 -1 45 46 56 130 24 193 -44 86
-205 163 -339 162 -49 0 -45 2 44 27 87 24 153 92 123 128 -7 9 -13 30 -14 47
0 17 -4 47 -8 67 l-8 36 49 7 c26 3 65 9 87 12 26 4 37 3 32 -4 -3 -6 -2 -22
4 -36 8 -22 16 -26 49 -26 33 0 43 5 61 31 13 18 20 40 18 53 -4 22 1 24 71
40 42 9 82 16 88 16 7 0 17 -19 24 -42 6 -24 15 -48 20 -54 5 -7 12 -34 15
-61 5 -37 1 -59 -15 -93 -41 -88 -103 -131 -208 -145 -29 -4 -55 -11 -58 -15
-6 -10 43 -27 107 -36 35 -4 51 -13 64 -32 16 -24 17 -25 30 -7 8 10 14 30 14
43 0 13 13 39 29 57 16 18 42 71 57 117 29 84 30 93 21 263 l-2 40 50 7 c110
15 99 19 105 -41 5 -52 6 -54 23 -37 38 39 8 358 -48 499 -6 14 -2 17 24 17
18 0 47 -7 66 -14 19 -8 35 -11 35 -5 0 5 16 2 37 -6 20 -8 38 -13 41 -10 9 9
-163 86 -183 81 -30 -8 -41 4 -65 64 -52 133 -212 362 -240 345 -6 -4 -9 -13
-6 -21 9 -23 -99 -204 -252 -421 -63 -91 -66 -93 -157 -137 -91 -44 -271 -154
-264 -161 2 -1 62 26 133 61 72 35 138 64 148 64 14 0 1 -24 -58 -102 -116
-154 -191 -245 -262 -319 l-63 -67 28 -26 c41 -39 159 -95 232 -109 l64 -13
-44 -12 c-84 -21 -130 -24 -154 -8 -41 27 -147 179 -196 281 -93 194 -125 377
-116 678 5 167 9 209 36 325 29 124 42 246 21 197 -5 -11 -9 -41 -9 -67 -1
-27 -5 -48 -11 -48 -5 0 -10 -14 -10 -30 0 -17 -6 -46 -14 -64 -54 -130 -69
-526 -27 -736 50 -252 167 -464 315 -572 29 -21 34 -28 20 -28 -15 0 -16 -2
-5 -9 8 -5 20 -7 28 -4 7 3 21 2 31 -2 47 -21 107 -31 98 -17 -18 29 150 -35
204 -78 l25 -20 -55 -1 c-30 -1 -65 -1 -78 0 l-22 2 22 -43 c33 -63 37 -160 8
-220 -12 -25 -36 -63 -53 -83 l-32 -36 -1 59 c-2 79 -33 135 -88 161 -55 27
-249 66 -254 52 -2 -6 -15 -11 -30 -11 -58 0 -3 -19 73 -25 103 -9 178 -30
214 -61 29 -24 68 -114 50 -114 -15 0 -173 63 -263 104 -44 20 -85 35 -92 32
-6 -2 -13 -29 -16 -58 -2 -30 -15 -76 -28 -104 l-25 -49 -7 48 c-13 94 -92
217 -138 217 -20 0 -19 -4 15 -47 88 -115 110 -224 50 -251 -15 -7 -24 -16
-20 -21 8 -14 77 -3 97 16 22 20 21 21 42 -122 17 -117 94 -492 120 -586 22
-77 56 -338 56 -426 0 -123 -36 -239 -89 -287 -28 -26 -33 -18 -16 29 27 77
10 108 -19 35 -14 -36 -18 -40 -37 -30 -11 6 -19 14 -17 18 2 4 10 19 17 33 7
14 26 33 42 43 16 9 29 24 29 33 0 13 -5 12 -26 -8 l-26 -24 7 25 c4 14 15 43
26 66 10 22 19 47 19 55 0 8 -16 -20 -34 -63 -19 -42 -48 -96 -65 -120 -105
-145 -139 -189 -164 -213 -29 -30 -45 -29 -29 2 26 47 64 294 46 292 -5 0 -25
-20 -44 -43 -21 -27 -50 -49 -73 -56 -40 -14 -57 -9 -39 13 6 7 14 26 17 42
14 66 18 565 6 764 -7 113 -13 288 -14 388 -1 101 -5 183 -9 183 -5 0 -8 20
-8 44 l0 44 33 -7 c83 -18 130 28 54 54 -61 21 -104 59 -111 101 -4 20 -6 38
-3 40 2 2 19 -1 38 -6 46 -13 100 -13 79 0 -8 5 -10 10 -5 11 6 0 -14 7 -44
15 -80 21 -168 67 -235 121 -32 26 -65 53 -73 58 -17 13 -157 -57 -225 -112
-73 -60 -100 -107 -96 -171 2 -31 -1 -51 -7 -49 -21 7 -64 104 -76 170 -24
135 25 346 135 572 43 89 52 118 49 150 -20 216 -56 445 -119 752 -19 95 -32
182 -29 195 4 13 35 45 70 71 94 71 236 208 306 295 34 42 122 167 194 277
155 234 229 337 336 461 223 260 447 418 611 432 72 6 66 22 -7 22 -245 0
-603 -319 -967 -861 -64 -96 -145 -212 -179 -259 -72 -96 -329 -360 -351 -360
-8 0 -25 -20 -37 -45 -22 -45 -22 -46 -6 -138 8 -50 18 -103 20 -117 7 -39 52
-273 101 -513 l43 -218 -48 -97 -49 -97 -17 39 c-47 110 -95 206 -103 206 -15
0 -62 162 -97 333 -18 87 -36 161 -39 164 -3 3 -9 -3 -13 -13 -3 -10 -14 -25
-24 -31 -26 -19 -131 -197 -176 -298 -46 -102 -79 -225 -91 -335 -8 -72 -9
-74 -21 -45 -7 17 -18 65 -24 107 -27 189 50 490 252 987 56 137 103 223 226
411 45 69 102 161 128 205 145 251 329 487 562 721 189 190 324 304 490 413
114 75 378 211 410 211 12 0 59 11 105 25 115 35 152 33 195 -7 45 -43 107
-147 100 -169 -4 -12 2 -22 15 -29 18 -10 25 -8 43 12 31 34 221 124 324 154
94 27 254 55 420 75 81 9 105 9 117 0 8 -7 46 -19 83 -27 37 -8 106 -27 153
-43 101 -34 105 -33 -133 -61 -92 -11 -227 -29 -300 -39 -73 -11 -204 -27
-292 -36 -182 -18 -239 -28 -291 -50 -57 -24 -36 -26 41 -4 49 13 102 19 176
19 111 0 367 15 504 30 44 4 82 7 84 5 5 -6 -87 -148 -159 -245 -52 -71 -60
-86 -44 -89 24 -4 55 32 161 192 47 70 96 135 109 144 41 26 110 13 181 -35
295 -200 709 -625 1038 -1065 86 -115 104 -135 110 -118 5 16 -13 47 -72 127
-43 58 -82 113 -88 122 -5 9 -17 23 -26 32 -8 8 -42 48 -75 89 -32 41 -102
122 -154 179 -52 57 -108 121 -123 141 -68 87 -233 245 -402 382 -49 40 -95
78 -101 84 -6 6 -34 28 -63 50 l-52 40 40 7 c22 4 50 12 61 18 12 6 23 10 24
8 1 -2 21 -32 44 -68 52 -80 97 -113 422 -297 121 -68 190 -106 219 -119 19
-9 61 -33 92 -55 32 -21 64 -39 72 -39 11 0 16 23 20 93 4 50 14 119 23 152
26 100 31 175 33 520 0 232 -3 346 -12 383 -6 29 -15 52 -18 50 -3 -2 -13 2
-21 9 -8 7 -59 28 -114 47 -204 71 -323 65 1216 68 762 2 1388 2 1393 0 4 -2
7 -1490 7 -3307z m-4875 2746 c208 -47 312 -63 434 -67 62 -2 116 -6 119 -9 3
-3 -4 -5 -16 -5 -11 0 -33 -6 -49 -14 -297 -146 -264 -139 -304 -61 -32 60
-98 124 -142 136 -32 8 -53 6 -125 -15 -48 -14 -112 -31 -142 -37 -111 -22
-445 -218 -636 -372 -175 -141 -480 -457 -550 -569 -15 -24 -48 -70 -74 -103
-53 -68 -177 -257 -233 -355 -20 -36 -56 -94 -81 -130 -147 -215 -264 -445
-368 -723 -75 -201 -132 -419 -145 -551 -5 -44 -13 -81 -19 -83 -11 -4 -70
108 -94 177 -7 20 -21 46 -31 58 l-18 22 -73 -44 c-89 -54 -144 -68 -241 -60
-127 10 -128 10 -71 49 83 58 122 94 153 139 48 69 92 164 126 268 18 54 34
95 37 92 7 -6 18 44 78 331 86 410 169 703 254 888 19 43 40 76 45 72 6 -3 26
25 45 62 38 74 78 108 216 187 142 81 465 279 633 388 188 123 384 228 527
284 150 58 238 72 440 73 159 1 187 -2 305 -28z m5755 -331 l-8 -35 -1 31 c-1
17 2 34 6 37 11 12 12 3 3 -33z m-3501 -17 c14 11 14 10 2 -6 -10 -13 -17 -15
-27 -6 -8 6 -14 14 -14 17 0 3 5 1 12 -6 9 -9 15 -9 27 1z m95 -19 c3 -8 2
-12 -4 -9 -6 3 -10 10 -10 16 0 14 7 11 14 -7z m-111 -79 c-3 -9 -8 -14 -10
-11 -3 3 -2 9 2 15 9 16 15 13 8 -4z m127 -36 c0 -4 -7 -9 -15 -13 -8 -3 -15
-1 -15 3 0 5 6 12 13 14 9 4 9 6 0 6 -19 1 -25 -17 -12 -40 8 -15 8 -19 0 -15
-13 8 -14 4 -5 -18 3 -9 11 -13 18 -9 8 4 8 2 -1 -7 -6 -7 -9 -20 -6 -29 4 -9
2 -12 -3 -8 -16 15 -31 93 -21 115 6 12 14 22 19 22 5 0 6 6 3 13 -4 6 1 3 9
-7 9 -11 16 -23 16 -27z m-312 -61 c5 -11 32 -10 32 1 0 5 -6 12 -12 14 -8 4
-9 6 -2 6 6 1 17 -6 24 -14 9 -11 9 -15 1 -15 -7 0 -9 -5 -6 -10 4 -6 11 -8
16 -4 5 3 16 0 24 -6 8 -6 19 -9 25 -5 8 5 5 11 -6 20 -16 12 -16 13 5 20 16
5 26 3 32 -6 5 -9 9 -10 9 -3 0 7 18 14 40 16 42 4 50 -4 50 -47 0 -13 5 -27
11 -31 6 -3 8 -17 4 -31 -4 -17 -2 -23 6 -18 8 6 8 2 0 -13 -11 -21 -41 -21
-41 0 0 5 -4 7 -9 3 -5 -3 -13 -1 -16 5 -4 6 -3 9 2 8 13 -4 53 22 53 34 0 6
-10 2 -22 -9 -27 -23 -72 -23 -96 0 -13 14 -14 19 -3 29 10 11 11 9 6 -7 -6
-18 -5 -19 7 -3 8 9 29 18 48 20 57 5 49 28 -10 28 -31 0 -49 -4 -45 -10 3 -5
-1 -10 -9 -10 -9 0 -16 -7 -16 -16 0 -9 -6 -14 -12 -11 -7 2 -12 10 -10 17 2
7 -3 10 -12 7 -8 -3 -20 1 -26 8 -7 8 -16 13 -20 10 -5 -3 -12 -1 -15 5 -4 6
-21 17 -38 25 l-32 14 30 -6 c17 -3 32 -10 33 -15z m269 -153 c0 -8 -4 -12 -9
-9 -5 3 -6 10 -3 15 9 13 12 11 12 -6z m-896 -1590 c27 -34 49 -65 49 -67 0
-3 -27 -25 -59 -51 -32 -25 -83 -74 -112 -109 l-52 -63 6 45 c4 25 9 128 13
230 3 102 8 191 10 198 2 7 24 -17 50 -53 25 -37 67 -95 95 -130z m-1158 -127
c37 -66 67 -123 67 -127 0 -4 -8 -7 -17 -8 -134 -7 -306 -49 -390 -95 -18 -10
-33 -16 -33 -13 0 3 46 73 103 157 57 84 116 177 132 206 l29 54 21 -28 c11
-15 50 -81 88 -146z m2755 7 c-3 -3 -9 2 -12 12 -6 14 -5 15 5 6 7 -7 10 -15
7 -18z m-4954 -186 c7 -70 51 -244 70 -284 8 -16 26 -57 40 -90 13 -33 38 -85
55 -116 l30 -55 -18 -50 c-32 -86 -45 -197 -42 -364 2 -147 20 -236 61 -302
30 -49 24 -62 -18 -39 -9 5 -40 12 -68 16 l-50 6 -28 -313 c-29 -345 -46 -595
-46 -704 0 -62 -3 -72 -19 -77 -16 -4 -27 12 -67 94 -26 55 -51 98 -55 97 -10
-4 -59 -68 -120 -158 l-51 -75 7 55 c6 49 3 61 -25 113 -34 61 -43 67 -60 40
-8 -13 -13 -15 -17 -5 -3 9 -12 5 -30 -14 -13 -14 -26 -24 -29 -21 -3 2 58
196 136 430 100 302 145 451 155 518 14 94 12 114 -9 106 -17 -6 -141 37 -138
48 1 6 17 52 35 103 27 78 30 94 17 102 -8 5 -17 7 -21 4 -4 -2 -44 18 -90 44
-46 27 -106 61 -134 76 -96 52 -96 48 31 238 l112 168 6 -63 c11 -102 51 -200
108 -263 34 -37 58 -54 74 -54 34 0 30 11 -19 62 -44 44 -44 45 -50 135 -12
171 26 287 187 564 33 59 64 101 67 95 4 -6 9 -36 13 -67z m2306 -28 c0 -4 11
-24 25 -44 36 -55 86 -331 56 -313 -20 13 -150 15 -226 5 -70 -9 -311 -82
-415 -125 -65 -26 -242 -74 -276 -74 -13 0 -24 -4 -24 -9 0 -12 59 -33 72 -25
5 3 21 -3 36 -13 15 -10 35 -20 45 -23 10 -3 31 -29 47 -57 l30 -53 -26 -6
c-53 -13 -137 4 -221 46 -46 23 -83 46 -83 51 0 6 36 50 80 97 43 48 136 161
206 252 69 91 132 168 140 173 7 4 62 20 121 36 59 16 120 33 134 39 15 6 53
16 85 22 33 7 75 16 94 20 49 11 100 12 100 1z m2407 -447 c-2 -2 -16 9 -31
25 -23 24 -27 35 -21 58 7 27 8 27 32 -26 13 -29 22 -55 20 -57z m-2787 -79
c10 -12 10 -18 0 -30 -16 -19 -50 -20 -50 -1 0 43 27 59 50 31z m-1706 -124
c-9 -27 -21 -48 -25 -45 -9 5 9 74 23 92 20 23 20 3 2 -47z m3834 -198 c6 -20
10 -39 8 -41 -2 -1 -16 8 -32 21 -24 21 -26 27 -15 41 20 24 26 20 39 -21z
m-387 -94 c-11 -30 -20 -46 -20 -37 -1 20 29 101 35 95 2 -2 -5 -28 -15 -58z
m-3045 -46 c39 -36 74 -77 89 -108 13 -28 41 -70 60 -93 20 -23 31 -42 25 -42
-21 0 -110 81 -197 178 -77 87 -82 96 -66 108 10 7 19 14 21 14 2 0 32 -26 68
-57z m3124 22 c7 -8 33 -21 59 -29 l46 -13 3 -60 c2 -50 8 -65 33 -93 l30 -33
-41 7 c-54 9 -128 47 -161 83 -54 60 -54 60 -25 94 14 17 26 37 26 45 0 18 14
18 30 -1z m365 -42 c5 -17 2 -23 -10 -23 -9 0 -59 -18 -112 -41 -52 -22 -96
-39 -97 -37 -2 2 -1 22 2 44 l4 42 51 7 c29 3 72 14 97 24 49 19 54 18 65 -16z
m-3560 -49 c71 -90 166 -181 218 -209 58 -31 48 -45 -30 -45 -75 0 -185 16
-211 30 -9 5 -37 18 -62 30 -25 12 -70 44 -100 71 l-55 49 79 75 c44 41 84 75
90 75 6 -1 38 -35 71 -76z m223 -49 c-3 -3 -9 2 -12 12 -6 14 -5 15 5 6 7 -7
10 -15 7 -18z m2980 -74 l37 -19 0 -344 0 -343 -34 38 c-32 36 -34 42 -33 107
1 38 -5 124 -14 192 -13 113 -21 188 -39 383 l-7 70 27 -33 c15 -18 43 -41 63
-51z m-112 -153 c34 -214 43 -286 53 -423 5 -66 19 -199 31 -295 11 -96 25
-247 29 -335 8 -146 7 -164 -10 -212 -11 -28 -33 -68 -49 -88 -17 -21 -30 -44
-30 -51 0 -8 -7 -14 -16 -14 -10 0 -14 5 -10 16 18 47 29 168 29 310 -1 181
-7 226 -29 217 -10 -4 -14 3 -15 23 -1 28 -1 28 -10 -6 -5 -19 -14 -44 -19
-55 -5 -11 -14 -45 -21 -75 -15 -71 -69 -188 -115 -251 -37 -50 -54 -61 -54
-33 0 8 -4 12 -10 9 -5 -3 -10 -2 -10 4 0 5 13 12 29 16 32 7 57 30 44 38 -5
3 -15 2 -23 -4 -8 -5 -41 -9 -72 -9 -46 0 -62 5 -85 25 -27 24 -27 24 -6 25
29 0 96 60 117 104 28 60 18 506 -19 855 -9 79 -17 149 -18 155 -1 6 9 12 23
14 14 2 38 13 55 25 50 35 149 128 163 154 8 14 16 22 19 20 2 -3 16 -74 29
-159z m-3311 102 c3 -6 22 -18 41 -28 31 -16 33 -20 21 -36 -11 -15 -17 -17
-35 -7 -19 10 -52 58 -52 76 0 9 18 6 25 -5z m1007 -64 c51 -25 116 -52 143
-62 104 -35 100 -32 80 -54 -17 -19 -18 -19 -56 0 -46 24 -62 25 -80 4 -7 -8
-28 -24 -48 -33 l-35 -19 -36 29 c-19 15 -48 29 -65 31 -23 2 -30 8 -28 23 3
26 26 125 29 125 2 0 45 -20 96 -44z m-1182 -21 c19 -1 45 -7 58 -14 12 -6 32
-9 43 -6 23 8 79 -3 79 -15 0 -9 -100 -47 -156 -60 -26 -6 -47 -5 -71 5 -31
13 -33 17 -33 60 0 44 1 46 23 39 12 -4 38 -8 57 -9z m390 -32 c8 -4 28 -7 43
-8 52 -5 55 -20 20 -84 -18 -32 -41 -81 -52 -109 -20 -50 -123 -227 -195 -333
-19 -28 -76 -94 -126 -146 -72 -74 -91 -99 -86 -115 6 -24 -39 -91 -99 -148
l-37 -35 6 110 c3 61 11 191 17 290 l11 180 122 125 c67 69 148 158 181 197
32 40 70 77 84 82 25 9 79 6 111 -6z m198 -84 c-10 -54 -20 -83 -40 -111 -10
-14 -10 -21 3 -33 19 -20 93 -22 114 -5 13 11 13 9 1 -21 -18 -43 -50 -48
-150 -23 -39 10 -79 17 -88 15 -30 -4 19 96 77 154 27 28 56 59 63 68 22 29
30 11 20 -44z m94 -11 c-2 -40 -9 -78 -15 -85 -7 -6 -29 -15 -50 -18 l-38 -7
20 33 c10 19 27 60 37 92 12 38 23 57 34 57 13 0 15 -11 12 -72z m-543 5 c-25
-43 -121 -145 -192 -205 l-48 -41 6 64 c3 35 8 87 11 115 l5 52 47 1 c61 1 58
0 157 41 35 15 37 11 14 -27z m1371 3 c0 -13 -10 -26 -25 -33 -21 -9 -29 -8
-47 6 l-21 18 20 20 c27 27 73 20 73 -11z m-327 -79 c80 -78 89 -91 169 -252
91 -183 140 -316 162 -438 l13 -77 -49 -30 c-51 -32 -80 -78 -75 -122 1 -14
-3 -22 -10 -21 -24 5 -63 -17 -63 -35 0 -15 -68 -82 -83 -82 -2 0 -7 46 -10
103 -3 56 -15 152 -27 212 -53 275 -63 323 -81 380 -16 52 -69 378 -69 427 0
38 41 16 123 -65z m1991 31 c21 -181 36 -404 42 -612 l7 -240 -24 20 c-89 70
-109 89 -109 99 0 15 -85 93 -117 108 -18 8 -23 18 -23 47 0 21 -11 68 -25
105 -23 59 -26 86 -28 206 -2 98 -7 143 -16 151 -10 11 -12 6 -10 -22 1 -19
-1 -61 -6 -92 l-7 -58 -22 33 c-26 38 -53 44 -129 24 -55 -14 -55 -14 -53 7 2
11 8 34 15 49 6 16 11 35 11 42 0 8 10 17 23 19 12 3 45 10 72 15 119 25 200
53 287 99 51 27 96 50 100 51 4 0 9 -23 12 -51z m-1854 32 c11 -7 4 -13 -30
-29 -52 -23 -32 -28 29 -6 39 13 44 13 91 -11 37 -19 50 -31 50 -47 0 -36 -12
-44 -78 -50 l-63 -5 -50 51 c-27 27 -49 53 -49 56 0 6 70 50 80 50 3 1 12 -3
20 -9z m236 -76 c19 7 44 -10 44 -30 0 -8 13 -42 29 -76 l29 -61 -41 46 c-28
29 -57 49 -84 57 -37 11 -43 17 -43 41 0 15 3 35 7 45 6 15 8 15 25 -6 11 -14
24 -20 34 -16z m104 -98 c0 -5 -7 -1 -15 10 -8 10 -14 24 -14 29 0 6 6 1 14
-9 8 -11 15 -24 15 -30z m756 13 l162 2 11 -52 c6 -29 9 -54 7 -56 -5 -5 -33
24 -59 61 -20 29 -71 38 -61 11 4 -8 12 -15 20 -15 8 0 44 -62 84 -144 91
-188 91 -210 1 -409 -32 -72 -38 -97 -21 -97 15 0 36 37 81 145 40 97 41 102
35 180 -5 58 -15 98 -37 144 -16 35 -28 65 -27 66 3 3 161 35 171 35 3 0 23
-33 45 -72 56 -103 82 -193 82 -290 0 -105 8 -118 69 -118 52 0 61 -8 61 -56
0 -29 -42 -159 -68 -210 -24 -48 -62 -85 -62 -62 0 16 -85 58 -117 58 -42 0
-170 -56 -210 -92 -12 -11 -26 -17 -32 -13 -16 9 -13 35 3 35 17 0 28 41 20
78 -15 66 -26 92 -42 92 -44 1 -46 15 -17 92 20 54 29 98 32 169 5 91 4 100
-21 145 -15 27 -45 71 -67 97 -50 59 -182 167 -203 167 -11 0 -16 9 -16 28 0
15 -5 34 -11 42 -9 12 -10 11 -6 -7 3 -15 -1 -23 -17 -27 -37 -10 -41 -7 -41
34 -1 42 14 52 65 43 13 -2 97 -4 186 -4z m-1800 -69 l61 0 7 -152 c3 -84 9
-178 12 -208 l7 -55 -31 41 c-46 62 -148 148 -190 159 -20 6 -82 10 -137 10
l-101 0 53 86 c56 90 81 119 125 142 25 12 34 12 80 -4 29 -10 80 -18 114 -19z
m4514 -156 c0 -3 -9 -19 -20 -35 -36 -49 -118 -230 -150 -329 -17 -52 -40
-147 -50 -210 -20 -122 -42 -349 -34 -362 3 -4 -8 -11 -23 -14 -16 -5 -28 -3
-31 4 -2 6 -10 4 -21 -7 -10 -10 -69 -48 -132 -86 -157 -93 -254 -160 -318
-218 -44 -39 -60 -48 -80 -43 -14 3 -116 10 -226 16 -110 6 -308 17 -440 25
-263 17 -661 36 -685 33 -8 0 -26 0 -39 0 l-24 2 23 25 c13 14 31 25 40 25 9
0 41 13 71 30 144 77 402 172 545 199 106 20 126 28 130 53 1 7 14 58 28 113
14 55 37 146 51 203 28 116 79 258 135 379 35 75 41 82 72 87 156 25 441 58
568 66 85 6 207 15 270 21 63 5 160 12 214 15 55 2 102 6 104 9 7 7 22 6 22
-1z m-2643 -163 c33 -56 36 -132 9 -238 -16 -64 -20 -71 -33 -58 -8 8 -18 15
-23 15 -6 0 -5 11 0 26 6 14 10 43 10 65 0 22 7 51 16 65 24 36 13 94 -35 170
-23 36 -41 68 -41 72 1 13 70 -71 97 -117z m-1983 72 c41 -21 125 -107 169
-173 32 -48 37 -62 37 -115 l0 -60 -40 46 c-53 63 -162 134 -234 155 -94 26
-168 16 -252 -35 -38 -23 -77 -47 -87 -54 -15 -10 -20 -9 -28 6 -6 9 -17 17
-25 17 -23 0 -16 11 70 105 44 48 98 97 125 111 43 23 53 24 140 18 55 -3 108
-12 125 -21z m1015 -123 c0 -9 -4 -8 -9 5 -5 11 -9 27 -9 35 0 9 4 8 9 -5 5
-11 9 -27 9 -35z m-1023 -75 c53 -26 158 -128 195 -189 23 -37 24 -72 4 -92
-8 -9 -15 -24 -15 -35 0 -11 -7 -35 -15 -55 l-14 -35 -73 54 c-106 77 -195
137 -207 137 -9 0 -140 83 -207 132 l-31 22 34 23 c19 13 39 23 46 23 7 0 26
12 42 25 28 24 35 26 110 21 57 -4 94 -13 131 -31z m-406 -74 c0 -5 -71 -39
-124 -60 -5 -2 5 14 23 35 29 34 38 39 67 36 19 -2 34 -7 34 -11z m-330 -172
c0 -4 -9 -13 -20 -19 -11 -6 -20 -17 -20 -24 0 -8 -7 -19 -15 -26 -8 -7 -15
-25 -15 -40 0 -18 -9 -36 -25 -48 -14 -11 -83 -87 -153 -168 -173 -200 -312
-338 -408 -403 l-79 -54 69 72 c47 49 66 75 58 80 -16 10 -2 114 33 252 47
183 95 297 187 442 61 94 84 110 98 70 6 -15 14 -37 18 -47 5 -11 4 -48 -1
-84 -10 -75 -5 -92 23 -92 13 0 25 12 35 38 9 20 44 78 78 129 l62 92 38 -81
c20 -44 37 -84 37 -89z m3719 15 c1 -28 -2 -31 -24 -26 -29 5 -32 23 -8 63 15
26 19 27 25 12 3 -10 7 -32 7 -49z m-1919 14 c12 -13 28 -35 36 -50 13 -24 12
-27 -5 -33 -18 -5 -34 -48 -23 -60 3 -3 17 -5 31 -5 61 0 71 -9 71 -61 l0 -49
-44 6 c-54 8 -59 0 -57 -79 2 -86 -3 -97 -45 -95 l-34 1 0 53 c0 29 -4 56 -10
59 -5 3 -10 14 -10 24 0 20 -26 31 -77 31 l-33 0 0 56 0 57 50 -6 c47 -6 52
-4 62 18 9 21 8 27 -13 44 -21 16 -22 22 -11 45 10 23 65 66 84 66 4 0 17 -10
28 -22z m901 -32 c6 -37 21 -56 47 -56 13 0 24 -22 36 -72 6 -25 4 -28 -18
-28 -35 0 -39 -13 -20 -57 21 -49 28 -99 16 -107 -9 -5 -22 31 -58 156 -4 14
-10 15 -30 8 -14 -6 -26 -10 -27 -10 -1 0 -2 12 -2 28 -1 15 -5 52 -9 82 -8
49 -7 53 7 41 19 -15 45 -5 28 12 -18 18 -13 49 6 45 12 -2 20 -16 24 -42z
m418 -170 c14 -15 10 -16 -46 -10 -72 8 -141 -11 -214 -57 -48 -30 -70 -38
-47 -16 31 30 125 83 172 98 56 17 108 11 135 -15z m-1550 -63 c1 -21 6 -23
56 -23 l55 0 0 -34 c0 -38 -6 -45 -47 -52 -51 -9 -61 -34 -14 -34 16 0 38 -10
52 -23 13 -13 32 -27 43 -30 16 -7 18 -18 14 -130 -2 -83 -8 -129 -18 -144
l-14 -22 -36 21 c-29 18 -269 176 -278 183 -2 2 8 20 23 40 25 38 75 180 75
216 0 10 9 27 20 36 11 10 20 23 20 29 0 19 34 22 42 4 4 -8 7 -25 7 -37z
m-1659 -29 c-6 -27 -13 -132 -17 -234 -7 -217 5 -325 56 -532 l9 -37 -262 0
-262 0 -22 33 -22 33 20 99 c11 54 34 128 51 163 33 72 122 203 158 235 13 12
72 68 130 125 58 57 109 104 114 103 4 -1 6 2 5 7 -3 8 43 59 50 56 1 -1 -3
-24 -8 -51z m1026 -12 c-13 -12 -17 8 -10 40 l9 33 3 -33 c2 -19 1 -36 -2 -40z
m2058 15 c-11 -12 -52 -58 -90 -102 -39 -44 -87 -101 -107 -127 l-36 -48 -5
28 c-4 16 2 49 14 82 11 30 20 63 20 73 0 12 10 20 30 24 17 3 33 10 36 14 3
5 14 9 25 9 13 0 19 6 17 16 -2 10 15 23 52 39 30 13 57 21 59 19 3 -2 -4 -14
-15 -27z m503 -43 c-3 -3 -12 -4 -19 -1 -8 3 -5 6 6 6 11 1 17 -2 13 -5z
m-1563 -161 c28 -30 79 -76 115 -102 135 -100 260 -144 390 -139 76 2 76 2
123 49 25 25 56 66 68 89 12 24 28 49 34 55 6 7 23 46 36 88 14 42 28 77 33
77 13 0 8 -46 -13 -111 -17 -57 -18 -65 -4 -80 47 -52 88 -285 66 -371 -6 -24
-16 -76 -23 -116 -7 -45 -16 -75 -25 -79 -23 -8 -59 5 -89 33 l-28 26 31 18
c17 11 35 28 41 39 6 11 18 26 26 35 12 12 14 20 5 36 -8 15 -8 20 1 18 7 -2
18 8 25 21 22 43 -2 233 -39 305 l-15 28 -24 -38 c-14 -22 -37 -60 -51 -85
-44 -75 -65 -89 -143 -95 -63 -5 -79 -2 -182 35 -139 50 -152 57 -257 132 -87
62 -185 156 -197 189 -4 10 -4 28 -1 40 5 20 7 19 27 -11 11 -18 43 -56 70
-86z m-144 -97 c-3 -74 -7 -137 -10 -140 -3 -3 -11 -2 -18 3 -9 5 -9 16 -2 41
6 19 10 76 10 126 0 84 4 104 19 104 3 0 4 -60 1 -134z m140 -1 c7 -8 11 -17
9 -18 -2 -2 -22 -17 -44 -33 -67 -51 -63 -53 -67 50 l-3 94 46 -39 c25 -21 52
-45 59 -54z m509 30 c61 -34 112 -92 92 -105 -9 -5 -27 7 -55 34 -27 27 -60
47 -95 59 -58 18 -121 23 -121 8 0 -5 20 -31 45 -58 25 -26 45 -51 45 -55 0
-18 -20 -5 -63 41 -46 49 -57 49 -57 0 0 -12 -5 -16 -14 -13 -11 4 -12 13 -4
41 5 19 7 37 4 41 -3 3 -24 -3 -46 -13 -31 -14 -43 -16 -52 -7 -7 7 -10 12 -7
12 2 0 31 11 64 25 84 36 187 32 264 -10z m-343 -6 c3 -6 -5 -3 -20 6 -14 10
-26 19 -26 22 0 7 39 -17 46 -28z m481 -1 c28 -26 29 -37 3 -35 -12 1 -23 12
-29 29 -12 34 -5 35 26 6z m-1091 -104 c122 -87 143 -99 175 -103 17 -2 -8
-29 -42 -47 -16 -8 -41 -14 -57 -14 -38 0 -47 -22 -26 -66 34 -72 105 -110
155 -84 22 12 108 179 102 198 -3 6 0 12 6 12 6 0 11 6 11 13 0 13 161 139
169 132 9 -10 -31 -55 -49 -55 -15 0 -20 -10 -26 -45 -3 -25 -21 -69 -38 -97
-128 -209 -218 -371 -312 -558 -100 -202 -145 -272 -251 -397 -58 -68 -107
-123 -109 -123 -6 0 24 70 48 110 88 148 146 296 172 438 13 74 14 92 1 155
-8 41 -19 180 -23 320 -6 162 -13 252 -21 260 -15 15 -14 40 2 31 6 -5 57 -40
113 -80z m1384 26 c0 -4 -7 -13 -15 -20 -13 -11 -15 -8 -15 13 0 19 4 25 15
21 8 -4 15 -10 15 -14z m-1750 7 c0 -2 -10 -12 -22 -23 l-23 -19 19 23 c18 21
26 27 26 19z m906 -63 c-9 -13 -16 -26 -16 -29 0 -3 30 -5 68 -5 47 0 63 -3
52 -10 -8 -5 -38 -10 -67 -10 l-52 0 24 -36 c26 -38 30 -65 15 -99 -8 -18 -9
-18 -10 5 -1 31 -36 110 -49 110 -22 0 -37 -144 -22 -215 l6 -30 26 35 c14 19
29 43 32 53 4 9 13 17 22 17 13 0 12 -7 -6 -42 -12 -24 -31 -54 -43 -66 l-21
-24 30 3 c64 5 95 -1 95 -17 0 -11 -5 -14 -16 -10 -36 14 -94 18 -94 7 0 -23
77 -95 125 -117 48 -23 50 -23 53 -5 2 11 -6 38 -16 60 -11 23 -17 43 -12 46
9 6 34 -29 45 -64 l8 -25 29 33 29 32 -32 40 c-30 38 -32 39 -50 23 -11 -10
-22 -14 -27 -10 -4 4 3 16 16 26 12 10 22 29 22 44 0 39 -15 31 -29 -14 -13
-45 -37 -56 -28 -12 3 15 8 34 11 42 4 10 -4 22 -24 33 -17 10 -28 23 -25 28
4 5 15 3 28 -6 26 -18 38 -19 61 -2 14 10 15 18 7 39 -10 27 -11 27 -47 12
-20 -8 -44 -12 -53 -9 -11 5 -1 13 37 27 46 17 52 23 52 49 0 16 5 29 10 29 6
0 10 -13 10 -29 0 -38 38 -51 59 -21 16 24 49 26 58 5 4 -13 15 -14 49 -9 62
9 91 0 90 -28 -1 -17 5 -23 19 -23 11 0 28 -12 37 -26 31 -50 40 -46 36 15 -3
52 -1 56 23 66 15 7 40 37 63 76 20 36 43 63 49 61 16 -5 24 -48 26 -133 1
-58 -2 -73 -15 -78 -12 -5 -15 -14 -10 -40 5 -28 2 -39 -21 -64 -15 -16 -43
-37 -60 -46 -18 -9 -33 -21 -33 -27 0 -5 20 -29 44 -54 45 -44 94 -63 136 -52
24 6 26 -16 11 -104 -6 -30 -15 -105 -22 -168 -9 -86 -16 -118 -30 -132 -17
-17 -19 -36 -19 -158 0 -77 -4 -142 -9 -145 -18 -11 -48 149 -71 379 -10 92
-18 129 -36 160 -32 56 -40 112 -20 159 19 45 19 58 5 111 l-11 39 -14 -24
c-17 -32 -17 -82 1 -205 8 -55 22 -149 30 -209 26 -193 70 -430 87 -475 6 -16
5 -27 -3 -31 -8 -5 0 -41 27 -121 21 -63 41 -116 45 -119 3 -3 10 -36 14 -74
8 -81 23 -131 24 -82 1 43 -21 210 -28 216 -4 3 -12 27 -19 53 -7 27 -21 66
-31 88 -12 24 -15 41 -9 45 5 3 13 2 18 -2 12 -14 57 -169 74 -259 31 -165 31
-365 0 -365 -7 0 -48 14 -91 31 l-78 30 -31 112 c-30 110 -34 159 -18 239 8
47 -13 84 -62 104 -19 8 -39 25 -45 38 -10 20 -16 22 -57 19 -42 -4 -51 -1
-82 29 -37 35 -41 41 -119 155 -41 60 -47 74 -35 84 19 16 18 28 -12 125 -25
79 -28 83 -53 81 -14 -2 -45 -13 -68 -25 -56 -29 -68 -28 -44 6 25 34 38 78
21 67 -23 -14 -136 -35 -185 -35 -78 1 -97 5 -142 28 -23 12 -49 22 -56 22 -8
0 -20 6 -26 14 -9 11 -8 17 4 29 8 9 15 20 15 24 0 5 6 17 13 27 12 17 16 17
77 -4 77 -26 156 -23 265 11 56 17 68 25 76 49 17 47 79 76 105 50 7 -7 20 -2
40 17 l29 27 -38 8 c-219 46 -302 327 -159 545 8 13 18 20 24 17 5 -3 3 -16
-6 -30z m2876 7 c42 -27 78 -73 78 -100 0 -5 -13 -12 -29 -16 -40 -9 -122 28
-151 67 l-22 30 28 24 c37 30 41 30 96 -5z m-1807 -172 c113 -104 214 -193
231 -202 40 -23 -1 -27 -243 -27 l-256 0 6 180 7 180 32 29 32 29 56 -58 c30
-32 91 -91 135 -131z m-1268 149 c-3 -8 -6 -5 -6 6 -1 11 2 17 5 13 3 -3 4
-12 1 -19z m-2399 -50 c-17 -35 -39 -90 -49 -123 l-18 -60 0 85 -1 86 48 36
c26 20 48 37 50 37 1 1 -12 -27 -30 -61z m2312 -56 c-24 -73 -51 -128 -69
-139 -17 -10 -25 -5 -67 39 -43 47 -46 52 -28 59 10 4 30 8 44 9 14 0 34 7 44
15 11 8 27 15 36 15 11 0 22 15 30 43 11 34 15 38 18 19 2 -12 -2 -39 -8 -60z
m3018 58 c27 -26 27 -33 0 -65 -19 -21 -33 -26 -79 -28 -97 -5 -100 3 -23 60
38 28 72 52 75 52 3 1 15 -8 27 -19z m-486 -76 c71 -3 126 -9 123 -13 -2 -4
-9 -89 -14 -190 -9 -150 -15 -191 -33 -234 -41 -95 -131 -257 -164 -295 l-33
-37 5 30 c4 21 -4 49 -26 94 -17 35 -30 71 -29 80 2 9 -1 100 -5 203 -5 103
-5 230 -1 283 7 90 8 95 28 90 12 -2 79 -7 149 -11z m565 -1 c43 -55 46 -62
33 -93 -17 -40 -54 -40 -96 0 l-31 31 36 38 c43 46 41 45 58 24z m-4570 -184
c15 -20 46 -58 67 -83 39 -46 39 -47 20 -65 -28 -27 -90 -48 -181 -62 -86 -13
-133 -7 -133 16 0 8 5 15 10 15 6 0 8 11 4 25 -12 47 4 72 87 135 45 33 85 60
90 58 4 -2 21 -19 36 -39z m683 -186 c0 -22 -40 -94 -49 -88 -5 2 -12 26 -16
51 -9 65 -15 77 -30 64 -8 -7 -9 -26 -3 -72 4 -35 10 -68 13 -75 5 -16 -76
-106 -121 -133 -33 -21 -39 -21 -119 -10 -46 7 -99 19 -117 28 -31 16 -33 20
-34 69 l-1 52 31 -17 c21 -11 64 -17 134 -20 112 -5 145 6 155 50 3 13 17 56
32 96 14 41 24 80 21 88 -3 8 19 -4 49 -27 30 -23 55 -48 55 -56z m5034 -410
c-67 -198 -82 -234 -83 -196 -1 38 124 383 139 383 5 0 -20 -84 -56 -187z
m-4336 89 c110 -68 320 -211 370 -252 34 -27 66 -65 81 -95 15 -27 45 -77 68
-110 39 -59 44 -62 114 -83 41 -11 86 -24 101 -27 14 -3 46 -14 71 -24 l44
-19 5 -124 c3 -67 10 -132 16 -143 12 -20 72 -235 72 -258 0 -14 74 -206 95
-247 9 -18 17 -68 19 -132 3 -57 2 -97 -1 -90 -2 6 -12 12 -20 12 -11 0 -14
-7 -9 -25 9 -34 -4 -31 -33 8 -21 28 -121 114 -121 104 0 -2 4 -17 9 -33 5
-16 12 -48 15 -71 l6 -43 -165 0 c-103 0 -165 4 -165 10 0 27 -42 5 -80 -42
-54 -69 -108 -114 -167 -140 -43 -20 -69 -23 -233 -26 -335 -6 -460 27 -576
152 -32 35 -69 78 -82 94 -16 22 -30 30 -50 30 -15 -1 -42 7 -59 16 -33 17
-250 279 -246 297 2 5 -1 9 -6 9 -15 0 -61 78 -85 145 -13 36 -19 65 -13 65 5
0 24 -11 41 -24 36 -27 90 -56 106 -56 25 0 50 41 50 83 0 64 58 192 137 303
162 228 376 488 460 558 28 24 70 88 128 198 18 35 21 37 40 22 11 -8 40 -27
63 -42z m4469 -259 c36 -94 37 -99 24 -87 -8 7 -32 8 -73 2 -84 -11 -89 -22
-5 -13 40 4 67 3 67 -3 0 -5 -31 -12 -68 -15 -38 -4 -83 -10 -100 -13 -21 -4
-32 -3 -32 5 0 6 12 12 28 12 20 1 22 2 7 6 -11 3 -24 8 -28 12 -7 8 137 151
152 151 3 0 16 -26 28 -57z m-3928 -118 c0 -5 -9 1 -19 14 -11 13 -20 28 -20
35 0 6 9 0 20 -14 11 -14 20 -29 19 -35z m3709 28 c-4 -22 -22 -20 -26 1 -2
10 3 16 13 16 10 0 15 -7 13 -17z m-3627 -150 c13 -16 12 -17 -3 -4 -10 7 -18
15 -18 17 0 8 8 3 21 -13z m3590 -280 c13 -16 12 -17 -3 -4 -10 7 -18 15 -18
17 0 8 8 3 21 -13z m35 1 c-5 -12 -2 -15 10 -10 14 5 15 4 4 -9 -8 -10 -9 -15
-1 -15 6 0 11 -4 11 -10 0 -18 -17 -10 -27 13 -9 21 -7 47 4 47 3 0 2 -7 -1
-16z m39 6 c3 -6 -1 -7 -9 -4 -18 7 -21 14 -7 14 6 0 13 -4 16 -10z m279 -9
c3 -5 -2 -15 -12 -22 -15 -12 -16 -12 -5 2 7 9 10 19 6 22 -3 4 -4 7 0 7 3 0
8 -4 11 -9z m-144 -20 c-13 -26 -13 -34 2 -25 7 4 8 3 4 -5 -4 -6 -12 -9 -17
-6 -5 4 -9 1 -9 -4 0 -6 5 -11 12 -11 12 0 2 -15 -10 -15 -4 0 -12 -4 -18 -8
-7 -4 -17 0 -24 8 -9 10 -9 15 -1 15 6 0 11 -6 11 -12 0 -7 6 -2 13 12 31 59
38 70 43 70 2 0 0 -9 -6 -19z m-115 -29 c-8 -8 -25 10 -25 26 0 13 2 13 14 -4
8 -10 13 -21 11 -22z m195 14 c0 -3 -4 -8 -10 -11 -5 -3 -10 -1 -10 4 0 6 5
11 10 11 6 0 10 -2 10 -4z m20 -21 c-7 -9 -15 -13 -17 -11 -6 6 20 36 26 30 2
-2 -2 -10 -9 -19z m-145 5 c3 -5 1 -10 -4 -10 -6 0 -11 5 -11 10 0 6 2 10 4
10 3 0 8 -4 11 -10z m-85 -10 c0 -5 -4 -10 -10 -10 -5 0 -10 5 -10 10 0 6 5
10 10 10 6 0 10 -4 10 -10z m40 -37 c0 -13 -3 -13 -15 -3 -8 7 -15 19 -15 27
0 13 3 13 15 3 8 -7 15 -19 15 -27z m153 23 c-1 -4 -9 -13 -17 -21 -12 -13
-15 -13 -20 1 -4 10 -2 13 6 8 7 -5 9 -2 5 8 -4 11 0 15 11 14 9 -2 16 -6 15
-10z m-85 -29 c-1 -2 3 -11 9 -19 11 -12 9 -18 -7 -33 -11 -10 -20 -13 -20 -8
0 6 7 14 16 17 8 3 12 11 9 16 -5 8 -11 8 -19 1 -13 -11 -26 -5 -26 11 0 5 4
7 9 4 5 -3 12 1 15 10 4 9 9 14 12 11 3 -3 4 -7 2 -10z m-5465 -166 c3 -20 8
-44 12 -54 7 -16 6 -16 -21 -1 -26 15 -29 22 -29 64 0 41 2 46 16 37 9 -6 19
-27 22 -46z m9 -141 c5 0 8 -6 7 -12 -2 -7 0 -26 4 -43 4 -16 16 -111 27 -210
12 -99 32 -247 45 -330 32 -198 38 -274 24 -291 -6 -7 -7 -19 -3 -25 4 -7 3
-9 -4 -5 -6 3 -15 -2 -21 -11 -6 -10 -11 -14 -11 -9 0 5 -8 2 -17 -5 -10 -8
-3 5 15 27 48 62 39 72 -19 20 -55 -49 -84 -62 -124 -52 -32 8 -80 53 -63 58
9 3 14 49 19 159 20 434 41 696 60 747 l9 23 22 -21 c12 -11 26 -20 30 -20z
m-122 5 c0 -14 -4 -25 -10 -25 -5 0 -10 11 -10 25 0 14 5 25 10 25 6 0 10 -11
10 -25z m-121 -31 c-7 -8 -26 -22 -43 -31 -36 -18 -30 -10 16 23 39 28 45 29
27 8z m95 0 c3 -8 2 -12 -4 -9 -5 3 -12 -7 -16 -22 -3 -15 -7 -32 -8 -38 -2
-5 -5 4 -8 22 -2 18 -1 30 3 28 4 -3 9 4 12 15 6 24 13 25 21 4z m-89 -74 c-3
-5 -12 -10 -18 -10 -7 0 -6 4 3 10 19 12 23 12 15 0z m-295 -6 c0 -8 -19 -13
-24 -6 -3 5 1 9 9 9 8 0 15 -2 15 -3z m631 -27 c-10 -9 -11 -8 -5 6 3 10 9 15
12 12 3 -3 0 -11 -7 -18z m-536 -5 c-3 -3 -11 0 -18 7 -9 10 -8 11 6 5 10 -3
15 -9 12 -12z m2595 -52 c8 -5 11 -10 5 -10 -5 0 -17 5 -25 10 -8 5 -10 10 -5
10 6 0 17 -5 25 -10z m-3400 -43 c0 -2 -10 -12 -22 -23 l-23 -19 19 23 c18 21
26 27 26 19z m1470 -53 c0 -8 -19 -13 -24 -6 -3 5 1 9 9 9 8 0 15 -2 15 -3z
m45 -53 c3 -5 2 -12 -3 -15 -5 -3 -9 1 -9 9 0 17 3 19 12 6z m1784 -142 l19
-42 73 2 74 2 -25 -18 c-14 -10 -37 -25 -52 -32 -16 -8 -28 -19 -28 -25 0 -13
54 -169 64 -185 4 -6 5 -11 1 -11 -11 0 -70 72 -101 124 -30 49 -32 51 -70 47
-75 -6 -122 -6 -117 2 2 4 9 7 14 7 8 0 79 44 108 66 2 2 -6 22 -17 46 -11 24
-22 63 -25 88 l-6 44 35 -37 c19 -20 43 -55 53 -78z m1622 60 c31 -31 49 -82
49 -139 0 -38 -4 -50 -15 -50 -8 0 -16 8 -16 18 -4 53 -10 78 -33 119 -39 69
-31 98 15 52z m-4526 -21 c86 -84 45 -77 389 -71 l306 6 0 -36 c0 -32 -4 -37
-27 -42 -110 -23 -209 -60 -246 -93 -24 -21 -47 -77 -47 -112 0 -33 23 -80 50
-105 11 -10 20 -21 20 -25 0 -15 -113 -30 -127 -17 -9 10 31 75 43 70 27 -10
13 19 -49 101 -37 51 -87 102 -123 129 -34 25 -104 84 -155 131 l-94 85 -5
-44 c-3 -24 -8 -46 -10 -48 -14 -11 -283 -185 -332 -214 -35 -20 -58 -41 -58
-51 0 -26 37 -231 50 -277 25 -90 71 -219 79 -224 7 -5 133 -192 166 -246 9
-14 32 3 155 117 80 74 157 148 171 166 15 17 30 28 34 24 5 -4 5 -2 1 5 -5
10 14 63 29 81 1 1 15 -3 31 -9 16 -6 71 -17 122 -24 108 -16 153 -6 180 38
16 26 16 30 0 58 -21 35 -23 70 -7 86 9 9 21 8 48 -2 51 -20 149 -38 167 -31
8 3 13 2 10 -3 -9 -14 66 -58 125 -75 110 -30 516 -60 749 -54 138 3 158 5
185 24 31 22 128 50 143 40 4 -2 6 22 4 55 -4 55 -3 59 17 59 24 0 41 -34 43
-87 l1 -33 138 0 138 0 19 -52 c11 -29 34 -97 51 -150 18 -54 37 -100 42 -103
5 -4 9 -16 9 -29 0 -32 48 -86 77 -86 13 0 42 9 65 21 23 12 75 31 117 44 84
25 479 166 554 197 26 11 47 24 47 28 0 12 87 33 101 24 9 -5 11 -2 6 12 -7
18 -7 18 7 0 22 -28 264 -34 446 -12 74 10 145 20 158 23 26 6 28 29 7 80 -8
19 -15 47 -15 60 0 17 -7 27 -20 30 -12 3 -27 18 -36 34 -14 29 -14 29 15 29
22 0 41 -12 75 -47 25 -26 48 -55 52 -65 4 -14 11 -9 30 28 46 86 117 138 202
150 37 5 51 3 61 -10 16 -19 7 -24 -54 -28 -33 -3 -42 -8 -54 -33 -18 -37 -26
-112 -17 -161 l7 -37 91 7 c50 4 95 8 100 9 6 1 15 -6 21 -15 9 -14 6 -23 -20
-48 -88 -86 -24 -190 135 -221 73 -14 431 -7 547 11 38 6 114 12 168 13 l99 2
29 35 c80 95 -8 218 -148 208 -67 -4 -64 14 9 50 35 17 74 41 87 54 14 12 36
23 50 23 23 0 26 4 24 30 -4 48 3 59 28 41 12 -8 27 -25 33 -38 11 -22 16 -23
90 -19 129 6 128 5 132 86 5 95 11 115 33 115 26 0 31 -19 31 -106 l0 -74 38
0 c51 1 150 23 187 42 39 21 117 104 135 144 l13 31 296 9 c481 14 604 11 666
-16 11 -5 119 -30 240 -56 121 -26 222 -51 223 -56 2 -4 8 -6 12 -3 5 3 51 -4
102 -16 51 -11 116 -25 143 -29 28 -5 210 -45 405 -89 195 -44 367 -81 382
-81 15 0 29 -4 32 -9 7 -11 -38 -20 -81 -17 -18 1 -33 -1 -33 -5 0 -4 -12 -9
-27 -11 -66 -12 -505 -130 -530 -143 -15 -8 -42 -15 -59 -15 -16 0 -73 -11
-125 -25 -51 -14 -184 -48 -294 -76 -110 -29 -203 -56 -206 -61 -3 -4 -28 -11
-55 -13 -51 -5 -184 -39 -219 -55 -11 -5 -92 -28 -180 -50 -88 -23 -182 -47
-210 -55 -27 -8 -122 -33 -210 -54 -88 -22 -239 -61 -335 -86 -96 -26 -209
-55 -250 -65 -41 -9 -208 -52 -370 -95 -162 -42 -374 -97 -470 -121 -262 -67
-479 -123 -535 -139 -27 -8 -122 -32 -210 -54 -88 -22 -239 -61 -335 -86 -96
-25 -287 -74 -425 -109 -137 -36 -320 -83 -405 -105 -236 -62 -894 -232 -905
-234 -18 -3 -240 56 -243 65 -2 4 -8 6 -13 3 -5 -3 -106 19 -226 50 -119 31
-253 65 -298 74 -75 17 -599 149 -1970 497 -319 81 -592 149 -607 152 -16 2
-28 9 -28 14 0 5 -4 6 -10 3 -5 -3 -69 10 -142 29 -73 19 -387 99 -698 177
-311 78 -567 145 -570 148 -3 4 -86 26 -185 50 -99 23 -200 49 -225 56 -25 7
-336 86 -692 175 -356 90 -645 168 -642 172 3 5 14 6 24 3 11 -3 27 -2 37 4
10 5 50 16 88 24 339 73 548 120 590 132 28 7 86 21 130 29 44 9 208 45 365
82 157 36 305 69 330 74 46 9 102 21 383 85 87 19 162 33 168 30 5 -4 9 -2 9
3 0 6 22 13 50 17 27 4 52 11 56 16 3 5 16 9 28 9 13 0 72 12 132 26 107 25
442 102 617 142 82 19 95 19 175 6 127 -19 369 -41 683 -61 l275 -17 68 52
c38 29 75 52 83 52 8 0 29 -15 48 -32z m4685 -3 c0 -7 -6 -18 -14 -22 -16 -9
-36 -74 -36 -117 0 -25 -2 -27 -16 -15 -13 11 -15 25 -9 74 3 33 14 68 22 78
19 21 53 23 53 2z m-3513 -33 c-15 -15 -27 -36 -27 -46 0 -15 -7 -16 -70 -10
-48 4 -70 3 -70 -4 0 -6 -7 -9 -16 -5 -9 3 -20 0 -25 -8 -6 -10 -9 -6 -9 14 0
21 5 27 23 28 52 2 151 31 172 50 5 5 18 9 29 9 18 0 17 -2 -7 -28z m1640 -18
c-3 -3 -12 -4 -19 -1 -8 3 -5 6 6 6 11 1 17 -2 13 -5z m1895 -16 c3 -7 1 -24
-3 -38 -5 -14 -11 -37 -14 -52 -3 -18 -10 -25 -19 -22 -10 4 -12 14 -6 39 4
19 5 37 1 41 -3 4 0 4 7 0 8 -5 12 1 12 18 0 27 15 36 22 14z m888 -63 c0 -9
-7 -27 -16 -40 -15 -23 -19 -80 -12 -180 2 -30 -1 -40 -14 -43 -62 -12 -68
191 -7 265 16 18 49 16 49 -2z m80 -58 c0 -2 -6 -17 -14 -33 -8 -16 -17 -53
-19 -82 -5 -63 -20 -84 -37 -53 -21 40 18 171 51 171 10 0 19 -2 19 -3z
m-4105 -57 c3 -6 -1 -7 -9 -4 -18 7 -21 14 -7 14 6 0 13 -4 16 -10z m-1455
-70 c0 -6 -6 -13 -14 -16 -8 -3 -24 -33 -36 -67 -12 -34 -24 -64 -26 -66 -7
-7 -74 62 -74 75 0 12 115 82 138 83 6 1 12 -4 12 -9z m2041 -27 c13 -16 12
-17 -3 -4 -10 7 -18 15 -18 17 0 8 8 3 21 -13z m-419 -180 c3 -38 3 -70 1 -73
-6 -7 -22 23 -17 32 3 4 -2 21 -11 37 -21 42 -20 71 4 71 16 0 19 -10 23 -67z
m-100 0 c10 -10 26 -27 38 -37 24 -24 29 -99 6 -90 -8 3 -17 18 -21 32 -3 15
-21 44 -39 64 -19 20 -31 39 -28 42 10 11 27 6 44 -11z"/>
<path d="M3226 9495 c3 -16 22 -85 41 -153 19 -68 32 -126 28 -130 -10 -10
-23 18 -45 103 -12 44 -25 83 -29 88 -6 6 -90 -17 -146 -42 -199 -86 -257
-111 -263 -111 -5 0 -16 -26 -26 -57 -10 -32 -27 -77 -37 -101 l-20 -43 66
-137 c36 -75 77 -157 91 -182 37 -65 133 -264 164 -340 16 -38 33 -66 43 -68
9 -2 17 2 17 8 0 31 230 334 317 417 18 18 55 76 81 130 45 93 47 102 50 196
l4 99 -39 42 c-22 22 -82 91 -134 151 -51 61 -104 118 -117 128 -12 10 -20 22
-18 26 3 4 -4 7 -15 7 -17 0 -19 -5 -13 -31z m85 -318 c-1 -12 -15 -9 -19 4
-3 6 1 10 8 8 6 -3 11 -8 11 -12z m-237 -675 c-5 -4 -12 -11 -15 -15 -3 -5 -9
-2 -12 5 -3 9 3 14 15 15 11 1 16 -1 12 -5z m106 2 c0 -3 -11 -19 -25 -36 -23
-27 -25 -28 -25 -8 0 13 8 24 20 27 11 3 17 9 14 14 -3 5 0 9 5 9 6 0 11 -3
11 -6z m-84 -84 c8 -7 14 -17 14 -22 0 -15 -29 18 -39 44 -4 13 -5 30 -2 38 4
9 7 3 9 -17 2 -17 10 -37 18 -43z m1 38 c-3 -7 -5 -2 -5 12 0 14 2 19 5 13 2
-7 2 -19 0 -25z"/>
<path d="M7817 11312 c-20 -31 277 -242 340 -242 23 0 10 11 -72 61 -55 34
-117 75 -138 92 l-39 30 30 13 c35 14 48 32 34 46 -7 7 -24 2 -51 -14 l-42
-23 -19 23 c-19 22 -35 28 -43 14z"/>
<path d="M8760 11311 c0 -5 10 -11 22 -14 21 -6 21 -7 -8 -36 -36 -37 -91
-126 -99 -163 -7 -26 -5 -28 26 -28 41 0 189 48 189 61 0 5 -11 36 -25 69 -14
33 -25 66 -25 73 0 20 -33 47 -58 47 -12 0 -22 -4 -22 -9z"/>
<path d="M11923 10247 c-11 -19 -38 -28 -50 -16 -10 10 -48 -33 -105 -121 -86
-133 -104 -180 -78 -206 5 -5 18 -41 28 -79 35 -132 105 -350 123 -385 10 -19
23 -48 29 -63 17 -48 41 -30 70 53 15 41 35 93 44 115 30 66 65 153 113 280
53 141 53 170 -1 243 -19 27 -32 53 -28 57 4 5 2 5 -5 1 -7 -4 -27 14 -51 46
-55 74 -78 93 -89 75z m48 -334 c-23 -9 -131 -18 -129 -11 2 5 26 26 53 47
l50 39 16 -37 c9 -20 13 -37 10 -38z"/>
<path d="M10130 10133 c0 -14 11 -46 25 -70 20 -32 32 -43 51 -43 24 0 23 2
-22 70 -26 39 -49 70 -50 70 -2 0 -4 -12 -4 -27z"/>
<path d="M8981 8974 c-23 -26 -41 -54 -41 -62 0 -8 -3 -12 -7 -9 -9 10 -54
-73 -46 -86 3 -6 1 -7 -5 -3 -11 6 -32 -22 -32 -43 0 -30 21 -6 67 77 28 51
116 152 131 152 15 0 15 2 2 10 -23 15 -25 13 -69 -36z"/>
<path d="M9110 8931 c-54 -11 -142 -73 -195 -138 -26 -32 -51 -57 -55 -56 -4
1 -7 -3 -7 -10 1 -7 -11 -50 -26 -98 -28 -87 -33 -119 -19 -119 18 1 31 18 42
57 11 36 16 41 31 33 51 -28 96 12 86 78 -5 32 -2 40 25 61 22 18 32 21 38 12
12 -20 19 -142 11 -193 -9 -58 -68 -158 -93 -158 -25 0 -23 -12 13 -70 34 -56
41 -61 39 -27 -4 49 1 68 30 101 17 18 42 60 56 91 23 49 26 66 21 115 -4 32
-16 88 -28 124 l-22 66 29 29 c16 16 38 39 49 51 13 14 29 20 50 18 l30 -3 3
-72 c2 -40 7 -73 12 -73 5 0 17 27 26 61 11 37 21 58 29 55 21 -8 41 12 30 30
-22 35 -119 52 -205 35z m-180 -275 c0 -27 -28 -43 -36 -21 -9 21 3 45 21 45
9 0 15 -9 15 -24z"/>
<path d="M9140 8477 c0 -9 10 -14 25 -13 33 1 33 20 0 24 -16 2 -25 -2 -25
-11z"/>
<path d="M7414 8212 c-13 -8 -29 -72 -18 -72 4 0 23 5 41 12 33 12 46 38 18
38 -7 0 -18 7 -22 15 -5 8 -13 11 -19 7z"/>
<path d="M8660 7881 c-48 -15 -131 -62 -125 -71 7 -11 26 -6 92 28 49 25 52
26 71 9 22 -20 52 -22 52 -4 0 18 -33 47 -51 46 -8 0 -25 -4 -39 -8z"/>
<path d="M7876 6432 l-39 -35 24 -18 c43 -33 55 -32 99 8 l41 39 -43 21 -44
21 -38 -36z"/>
<path d="M8075 6460 c-3 -5 -1 -10 4 -10 6 0 11 5 11 10 0 6 -2 10 -4 10 -3 0
-8 -4 -11 -10z"/>
<path d="M5049 9198 c-5 -61 33 -229 55 -247 16 -13 -6 206 -23 238 -13 23
-30 28 -32 9z"/>
<path d="M9850 10971 c0 -6 4 -13 10 -16 6 -3 7 1 4 9 -7 18 -14 21 -14 7z"/>
<path d="M7800 8760 c-11 -8 -7 -10 17 -8 17 1 29 6 27 10 -7 11 -26 10 -44
-2z"/>
<path d="M7850 5860 c0 -3 -4 -20 -9 -38 -7 -24 -7 -32 4 -32 15 0 25 43 14
62 -5 7 -9 11 -9 8z"/>
<path d="M7770 5810 c0 -12 26 -31 33 -23 12 11 7 21 -13 26 -11 3 -20 2 -20
-3z"/>
<path d="M7880 5804 c0 -14 3 -15 18 -3 9 7 19 15 21 16 2 2 -5 3 -17 3 -14 0
-22 -6 -22 -16z"/>
<path d="M7925 5800 c-13 -15 -16 -23 -8 -31 8 -8 21 -4 47 16 20 15 36 29 36
31 0 14 -60 0 -75 -16z"/>
<path d="M7816 5756 c7 -19 38 -22 32 -3 -3 6 -12 13 -21 15 -12 2 -15 -1 -11
-12z"/>
<path d="M7880 5752 c0 -14 6 -22 16 -22 14 0 15 3 3 18 -7 9 -15 19 -16 21
-2 2 -3 -5 -3 -17z"/>
<path d="M7767 5743 c-13 -12 -7 -23 13 -23 11 0 20 7 20 15 0 15 -21 21 -33
8z"/>
<path d="M7817 5699 c3 -10 14 -26 26 -36 20 -17 20 -17 14 0 -4 10 -7 26 -7
36 0 10 -8 17 -19 17 -12 0 -17 -6 -14 -17z"/>
<path d="M7887 5713 c-11 -11 -8 -43 4 -43 12 0 38 29 39 43 0 9 -34 9 -43 0z"/>
<path d="M7772 5699 c2 -7 10 -15 17 -17 8 -3 12 1 9 9 -2 7 -10 15 -17 17 -8
3 -12 -1 -9 -9z"/>
<path d="M8072 5678 c4 -28 19 -27 30 1 6 17 3 21 -13 21 -15 0 -20 -5 -17
-22z"/>
<path d="M7959 5674 c-11 -14 -10 -18 6 -30 16 -12 21 -12 32 -1 16 15 7 47
-12 47 -7 0 -19 -7 -26 -16z"/>
<path d="M7790 5653 c1 -5 11 -21 24 -36 20 -25 24 -26 36 -12 7 8 11 17 9 18
-19 14 -59 37 -64 37 -3 0 -5 -3 -5 -7z"/>
<path d="M7834 5575 c-4 -9 -2 -21 4 -27 16 -16 47 -5 47 17 0 26 -42 34 -51
10z"/>
<path d="M7790 5495 c-6 -8 -10 -19 -8 -26 2 -6 9 0 16 15 13 29 10 33 -8 11z"/>
<path d="M7762 5160 c0 -19 2 -27 5 -17 2 9 2 25 0 35 -3 9 -5 1 -5 -18z"/>
<path d="M4493 3373 c-10 -3 -9 -11 3 -34 8 -16 20 -55 25 -87 20 -105 49
-119 49 -24 0 63 -49 155 -77 145z"/>
<path d="M4420 3295 c0 -3 9 -22 20 -42 11 -21 20 -47 20 -58 0 -30 22 -57 39
-46 11 7 11 18 -3 63 -9 31 -21 60 -28 65 -16 12 -48 24 -48 18z"/>
<path d="M11719 2913 c-29 -64 -38 -183 -15 -202 20 -17 23 -10 29 89 3 41 12
91 21 111 14 35 13 49 -5 49 -5 0 -18 -21 -30 -47z"/>
<path d="M11597 2836 c-3 -7 -8 -33 -12 -58 -8 -51 14 -118 39 -118 24 0 29
19 11 47 -14 20 -16 38 -11 84 6 48 4 59 -7 59 -8 0 -17 -6 -20 -14z"/>
<path d="M11794 2789 c-11 -18 -6 -110 7 -125 6 -8 18 -14 26 -14 12 0 13 12
8 68 -4 37 -9 70 -12 75 -6 10 -21 9 -29 -4z"/>
<path d="M10986 2730 c-62 -5 -85 -22 -73 -54 11 -27 57 -38 132 -32 86 6 147
23 143 39 -6 17 -66 44 -108 49 -19 2 -62 1 -94 -2z"/>
</g>
</svg>
