<?xml version="1.0" standalone="no"?><!DOCTYPE svg PUBLIC "-//W3C//DTD SVG 1.1//EN" "http://www.w3.org/Graphics/SVG/1.1/DTD/svg11.dtd"><svg t="1765043099575" class="icon" viewBox="0 0 1024 1024" version="1.1" xmlns="http://www.w3.org/2000/svg" p-id="11909" xmlns:xlink="http://www.w3.org/1999/xlink" width="200" height="200"><path d="M363.52 590.762667c-44.373333 0-80.554667-40.32-80.554667-89.642667 0-49.365333 35.285333-89.685333 80.597334-89.685333 44.8 0 81.493333 40.32 80.597333 89.685333 0 49.322667-35.797333 89.6-80.64 89.6z m297.557333 0c-44.373333 0-80.64-40.32-80.64-89.642667 0-49.365333 35.370667-89.685333 80.64-89.685333 44.8 0 81.493333 40.32 80.64 89.685333 0 49.322667-35.370667 89.6-80.64 89.6z m-229.077333-406.314667l-13.141333-24.021333-27.050667 4.522666a697.770667 697.770667 0 0 0-177.408 54.613334l-9.728 4.48-6.058667 8.96c-111.488 164.394667-142.08 326.314667-126.933333 485.333333l1.664 17.365333 14.08 10.24a721.493333 721.493333 0 0 0 216.661333 108.501334l33.706667 10.325333L385.28 748.8c81.493333 20.138667 171.946667 20.138667 253.397333 0l47.232 115.925333 33.706667-10.325333a717.653333 717.653333 0 0 0 216.746667-108.586667l13.952-10.154666 1.706666-17.152c18.602667-184.32-29.738667-344.874667-126.208-485.717334l-6.058666-8.874666-9.728-4.437334a707.2 707.2 0 0 0-177.237334-54.613333l-26.368-4.394667-13.397333 23.125334c-3.754667 6.4-7.552 13.653333-11.221333 21.034666a677.461333 677.461333 0 0 0-139.221334 0c-3.626667-7.253333-7.253333-14.208-10.581333-20.224zM286.506667 708.693333c8.405333 4.864 17.28 9.642667 26.026666 13.994667l-19.157333 46.762667a640.768 640.768 0 0 1-146.261333-75.861334c-9.6-133.888 17.621333-269.013333 109.397333-408.32a620.842667 620.842667 0 0 1 120.490667-38.954666c2.56 5.333333 4.949333 10.581333 6.912 15.189333l11.648 27.434667 29.525333-4.309334a601.941333 601.941333 0 0 1 174.506667 0l29.44 4.266667 11.605333-27.392c2.005333-4.778667 4.352-9.984 6.826667-15.189333 41.685333 8.96 82.048 22.186667 120.661333 39.04 80 120.32 120.362667 254.549333 108.629333 408.192a635.776 635.776 0 0 1-146.346666 75.904l-18.986667-46.72c8.789333-4.352 17.664-9.130667 26.154667-14.037334 20.906667-12.032 43.392-27.050667 57.728-41.386666l-54.613334-54.613334c-6.954667 6.997333-22.314667 17.92-41.685333 29.098667-18.944 10.922667-37.76 19.754667-49.792 23.722667-85.461333 28.288-188.928 28.288-274.432 0-11.989333-3.968-30.805333-12.8-49.749333-23.722667-19.370667-11.136-34.730667-22.101333-41.728-29.098667l-54.613334 54.613334c14.378667 14.336 36.864 29.354667 57.770667 41.386666z" p-id="11910" fill="#515151"></path></svg>